<?xml version="1.0" standalone="no"?>
<!DOCTYPE svg PUBLIC "-//W3C//DTD SVG 20010904//EN"
 "http://www.w3.org/TR/2001/REC-SVG-20010904/DTD/svg10.dtd">
<svg version="1.0" xmlns="http://www.w3.org/2000/svg"
 width="96.000000pt" height="96.000000pt" viewBox="0 0 96.000000 96.000000"
 preserveAspectRatio="xMidYMid meet">
<metadata>
Created by potrace 1.14, written by Peter Selinger 2001-2017
</metadata>
<g transform="translate(0.000000,96.000000) scale(0.100000,-0.100000)"
fill="#000000" stroke="none">
<path d="M223 761 c-171 -59 -250 -250 -170 -413 35 -71 75 -106 180 -160 74
-37 89 -42 157 -42 58 0 84 4 114 20 l40 21 45 -21 c64 -29 171 -28 226 1 79
42 132 118 141 201 7 62 -26 208 -60 266 -49 84 -132 134 -234 143 -83 6 -159
-19 -224 -76 -32 -29 -57 -41 -91 -46 -131 -20 -230 -156 -212 -292 6 -46 5
-47 -10 -26 -23 32 -45 100 -45 137 0 51 28 128 58 163 48 53 107 78 190 79
75 1 97 10 87 36 -12 32 -113 37 -192 9z m522 -65 c27 -14 94 -66 84 -66 -2 0
-22 7 -44 15 -49 18 -119 18 -166 1 -25 -9 -40 -9 -52 -2 -12 8 -23 7 -37 -2
-15 -9 -26 -10 -41 -2 -20 11 -20 12 5 31 62 49 180 61 251 25z"/>
</g>
</svg>
